<mxfile host="65bd71144e">
    <diagram id="jSuVHKVwYrAJfJUO2jub" name="Page-1">
        <mxGraphModel dx="799" dy="469" grid="1" gridSize="10" guides="1" tooltips="1" connect="1" arrows="1" fold="1" page="1" pageScale="1" pageWidth="850" pageHeight="1100" math="0" shadow="0">
            <root>
                <mxCell id="0"/>
                <mxCell id="1" parent="0"/>
                <mxCell id="20" style="edgeStyle=none;html=1;exitX=1;exitY=0.5;exitDx=0;exitDy=0;entryX=-0.008;entryY=0.331;entryDx=0;entryDy=0;endSize=6;jumpSize=6;strokeWidth=6;entryPerimeter=0;" edge="1" parent="1" source="3">
                    <mxGeometry relative="1" as="geometry">
                        <mxPoint x="199.99999999999997" y="69.50999999999999" as="targetPoint"/>
                    </mxGeometry>
                </mxCell>
                <mxCell id="3" value="Stability&lt;br&gt;Matrix" style="shape=parallelogram;perimeter=parallelogramPerimeter;whiteSpace=wrap;html=1;fixedSize=1;fillColor=#647687;fontColor=#ffffff;strokeColor=#314354;" vertex="1" parent="1">
                    <mxGeometry x="42.08" y="40" width="120" height="60" as="geometry"/>
                </mxCell>
                <mxCell id="21" style="edgeStyle=none;html=1;exitX=1;exitY=0.5;exitDx=0;exitDy=0;entryX=-0.013;entryY=0.708;entryDx=0;entryDy=0;entryPerimeter=0;strokeWidth=6;" edge="1" parent="1" source="4">
                    <mxGeometry relative="1" as="geometry">
                        <mxPoint x="200" y="158.67999999999995" as="targetPoint"/>
                    </mxGeometry>
                </mxCell>
                <mxCell id="4" value="Preparation&lt;br&gt;Protocol" style="shape=parallelogram;perimeter=parallelogramPerimeter;whiteSpace=wrap;html=1;fixedSize=1;fillColor=#647687;fontColor=#ffffff;strokeColor=#314354;" vertex="1" parent="1">
                    <mxGeometry x="43.38" y="130" width="120" height="60" as="geometry"/>
                </mxCell>
                <mxCell id="5" value="" style="rounded=1;whiteSpace=wrap;html=1;" vertex="1" parent="1">
                    <mxGeometry x="200" y="20" width="260" height="210" as="geometry"/>
                </mxCell>
                <mxCell id="13" value="" style="edgeStyle=none;html=1;entryX=0.5;entryY=0;entryDx=0;entryDy=0;strokeWidth=4;" edge="1" parent="1" source="6" target="9">
                    <mxGeometry relative="1" as="geometry"/>
                </mxCell>
                <mxCell id="6" value="Structure&lt;br&gt;Factor" style="ellipse;whiteSpace=wrap;html=1;aspect=fixed;fillColor=#0050ef;fontColor=#ffffff;strokeColor=#001DBC;" vertex="1" parent="1">
                    <mxGeometry x="230" y="30" width="80" height="80" as="geometry"/>
                </mxCell>
                <mxCell id="14" value="" style="edgeStyle=none;html=1;strokeWidth=4;" edge="1" parent="1" source="9" target="10">
                    <mxGeometry relative="1" as="geometry"/>
                </mxCell>
                <mxCell id="9" value="Self-Consistent&lt;br&gt;Scheme" style="rounded=0;whiteSpace=wrap;html=1;fillColor=#a20025;fontColor=#ffffff;strokeColor=#6F0000;" vertex="1" parent="1">
                    <mxGeometry x="210" y="150" width="120" height="60" as="geometry"/>
                </mxCell>
                <mxCell id="15" value="" style="edgeStyle=none;html=1;entryX=0.5;entryY=1;entryDx=0;entryDy=0;strokeWidth=4;" edge="1" parent="1" source="10" target="22">
                    <mxGeometry relative="1" as="geometry">
                        <mxPoint x="440" y="100" as="targetPoint"/>
                    </mxGeometry>
                </mxCell>
                <mxCell id="10" value="Mobility" style="ellipse;whiteSpace=wrap;html=1;aspect=fixed;fillColor=#6a00ff;fontColor=#ffffff;strokeColor=#3700CC;" vertex="1" parent="1">
                    <mxGeometry x="360" y="140" width="80" height="80" as="geometry"/>
                </mxCell>
                <mxCell id="16" value="" style="edgeStyle=none;html=1;exitX=0;exitY=0.5;exitDx=0;exitDy=0;strokeWidth=4;" edge="1" parent="1" source="22" target="6">
                    <mxGeometry relative="1" as="geometry">
                        <mxPoint x="380" y="70" as="sourcePoint"/>
                    </mxGeometry>
                </mxCell>
                <mxCell id="18" value="" style="edgeStyle=none;html=1;exitX=1;exitY=0.5;exitDx=0;exitDy=0;strokeWidth=4;" edge="1" parent="1" source="22" target="17">
                    <mxGeometry relative="1" as="geometry">
                        <mxPoint x="500" y="70" as="sourcePoint"/>
                        <Array as="points">
                            <mxPoint x="560" y="70"/>
                        </Array>
                    </mxGeometry>
                </mxCell>
                <mxCell id="17" value="Transpor properties&lt;br&gt;Structural Information&lt;br&gt;Time evolution" style="shape=parallelogram;perimeter=parallelogramPerimeter;whiteSpace=wrap;html=1;fixedSize=1;fillColor=#647687;strokeColor=#314354;fontColor=#ffffff;" vertex="1" parent="1">
                    <mxGeometry x="480" y="100" width="160" height="100" as="geometry"/>
                </mxCell>
                <mxCell id="22" value="Stability&lt;br&gt;Evualation" style="rhombus;whiteSpace=wrap;html=1;fillColor=#008a00;fontColor=#ffffff;strokeColor=#005700;" vertex="1" parent="1">
                    <mxGeometry x="355" y="25" width="90" height="90" as="geometry"/>
                </mxCell>
            </root>
        </mxGraphModel>
    </diagram>
</mxfile>